<svg width="1200" height="736" xmlns="http://www.w3.org/2000/svg" xmlns:xlink="http://www.w3.org/1999/xlink"><defs><path id="a" d="M0 0h1200v736H0z"/><linearGradient x1="54.6%" y1="92.417%" x2="54.6%" y2="7.065%" id="c"><stop stop-color="#005F86" offset="0%"/><stop stop-color="#0085B2" offset="100%"/></linearGradient><linearGradient x1="0%" y1="-7.408%" x2="77.316%" y2="71.959%" id="d"><stop stop-color="#0380AA" offset="0%"/><stop stop-color="#0071A1" offset="100%"/></linearGradient><linearGradient x1="50%" y1="0%" x2="50%" y2="100%" id="e"><stop stop-color="#006593" offset="0%"/><stop stop-color="#006893" offset="100%"/></linearGradient><linearGradient x1="41.524%" y1="76.809%" x2="83.209%" y2="-6.484%" id="f"><stop stop-color="#0070A1" offset="0%"/><stop stop-color="#0381AB" offset="100%"/></linearGradient><linearGradient x1="54.6%" y1="75.422%" x2="54.6%" y2="-31.028%" id="g"><stop stop-color="#005F86" offset="0%"/><stop stop-color="#0085B2" offset="100%"/></linearGradient></defs><g fill="none" fill-rule="evenodd" opacity=".8"><mask id="b" fill="#fff"><use xlink:href="#a"/></mask><use fill="#D8D8D8" xlink:href="#a"/><g mask="url(#b)"><path fill="url(#c)" d="M64 0h1200v736H64z" transform="translate(-64)"/><path fill="#046C9C" d="M1019.865 470.515l-119.27 11.824.973 176.03h135.185z"/><path fill="url(#d)" transform="matrix(-1 0 0 1 1033.636 468.751)" d="M13.6 2.996l25.187 11.051h18.735l50.564 7.12 25.13-7.12-21.502-11.05-64.22-2.62z"/><path fill="#006693" d="M994.577 483.1l-3.168 175.27h-26.976l12.005-175.27zm-69.04 6.959l14.201 168.31h-52.916l13.79-175.602z"/><path fill="#00628C" d="M439.098 618.3L427.38 797.114l-174.223.97 60.622-153.13z"/><path fill="url(#e)" d="M343.352.422L309.73 361.89l-114.11 34.5L272.14 0z" transform="translate(98.292 326.58)"/><path fill="#046C9C" d="M407.004 376.977l-10.276 224.848h-43.723L355.2 377.4z"/><path fill="#0071A1" d="M331.609 387.638L300.517 784.03l-149.244-.296 84.837-395.946z"/><path fill="url(#f)" d="M343.352.463L271.932 0l-86.06 20.827-48.797 40.264-3.105 87.67L0 441.06l274.593 1.851 66.212-151.19-28.949-74.662-54.563-136.067 51.902-26.38 5.323-24.336z" transform="translate(98.292 326.58)"/><path fill="url(#g)" d="M53 648.471h1235.607v136.601H53z" transform="translate(-64)"/><path fill="#086D9B" d="M688.384 565.765l148.618 29.536 7.212 28.574h369.527v119.267H722.006l-23.748-122.735z"/><path fill="url(#d)" d="M752.384 565.765l40.244 34.66h31.075l110.966 35.52 331.838-2.985 33.565-24.446-365.403-27.98z" transform="translate(-64)"/><path fill="#006693" d="M728.953 600.161l8.151 138.64 45.848-1.53-22.924-137.11z"/><path fill="#086D9B" d="M156.06 565.765l-197.452 34.591 2.5 134.743H183.89z"/><path fill="url(#d)" transform="matrix(-1 0 0 1 177.747 565.765)" d="M21.687 0l40.245 34.66h31.074l83.865 20.09 42.293-20.09L176.87 0z"/><path fill="#006693" d="M115.836 600.418l-6.438 134.364h-44.62l20.09-134.364zM.97 620.598l24.028 114.5H-62.66l21.323-134.535zm870.186 15.43l11.89 99.07h146.44l-61.675-99.934z"/><path d="M712.117 571.32l-1.273.33-.436.17h3.056v-.11l.387.11.632-.242v.243h3.057l-.437-.17-1.31-.34v-.237l.517-.199 1.23-4.018v-.768l.66.597 1.258 2.314.738-1.914-.664-2.232-2.231-2.322-.617-1.847-.018.043-.356-1.436-.984-1.89-.983-1.655-1.968-.237-.738.473h-.983l-.246.236.738.473.491.71.246.945-.634 2.033-1.141 2.126-1.756 1.912-.558 2.28.759 1.853 1.027-2.2.839-1.011.235 2.935.737 2.837.726.209zm-9.062 1.436v.01l.858.222.286.11h-4.039l.286-.11.858-.223v-.31l-.412-.158-.805-2.631v-1.702l.167-.675-.542-.599-1.738-.087-1.653.489.545-1.228 1.34-.726 2.108-.042.551-.275.027-.107.644-1.239.644-1.083 1.288-.155.483.31h.644l.161.155-.483.31-.322.463-.16.62.422 1.354.646.538 1.535.73.898 1.248-.006 1.31-1.164-1.084-.98-.528-.522.09.136.83-.16 2.012-.484 1.857-1.057.304z" fill="#15516B"/><path d="M915.753 481.916v.009l-.858.222-.286.111h4.039l-.286-.11-.857-.223v-.31l.411-.159.805-2.63v-1.703l-.167-.675.543-.598 1.737-.088 1.653.49-.545-1.228-1.34-.726-2.108-.042-.551-.276-.027-.107-.644-1.238-.644-1.083-1.288-.155-.483.31h-.644l-.161.154.483.31.322.464.16.619-.422 1.355-.646.538-1.535.73-.898 1.247.007 1.31 1.163-1.083.981-.529.521.09-.136.83.16 2.012.484 1.857 1.057.305z" fill="#005E86"/><path d="M724.43 587.34v.012l-1.099.285-.366.142h5.177l-.367-.142-1.1-.285v-.398l.528-.202 1.032-3.372v-2.182l-.214-.865.695-.767 2.226-.112 2.119.627-.698-1.573-1.718-.931-2.701-.053-.707-.353-.034-.138-.825-1.587-.826-1.388-1.65-.198-.62.396h-.825l-.206.199.619.396.412.595.207.794-.542 1.736-.828.689-1.967.936-1.15 1.598.007 1.68 1.491-1.39 1.258-.677.667.117-.174 1.063.206 2.578.62 2.38 1.354.39zm-590.135-17.23l1.273.33.436.17h-3.056v-.111l-.387.111-.632-.243v.243h-3.057l.437-.17 1.31-.34v-.236l-.517-.2-1.23-4.018v-.768l-.66.598-1.258 2.314-.738-1.914.664-2.233 2.231-2.321.617-1.848.018.044.356-1.436.984-1.891.983-1.655 1.968-.236.738.473h.983l.246.236-.738.473-.491.709-.246.945.634 2.033 1.141 2.127 1.756 1.912.558 2.28-.759 1.852-1.027-2.2-.839-1.01-.235 2.935-.738 2.836-.725.21z" fill="#15516B"/></g></g></svg>