
<svg width="1200px" height="736px" viewBox="0 0 1200 736" version="1.1" xmlns="http://www.w3.org/2000/svg" xmlns:xlink="http://www.w3.org/1999/xlink">
    <!-- Generator: Sketch 50 (54983) - http://www.bohemiancoding.com/sketch -->
    <desc>Created with Sketch.</desc>
    <defs>
        <linearGradient x1="48.4240658%" y1="0%" x2="49.966676%" y2="97.8854432%" id="linearGradient-1">
            <stop stop-color="#2F6AAE" offset="0%"></stop>
            <stop stop-color="#4B5F99" offset="100%"></stop>
        </linearGradient>
        <linearGradient x1="50%" y1="0%" x2="50%" y2="98.439493%" id="linearGradient-2">
            <stop stop-color="#3E72C1" offset="0%"></stop>
            <stop stop-color="#4B5F99" offset="100%"></stop>
        </linearGradient>
    </defs>
    <g id="Восстанови-историю" stroke="none" stroke-width="1" fill="none" fill-rule="evenodd">
        <g id="BG">
            <g id="Group-5">
                <g>
                    <g transform="translate(-25.812317, -2.867532)">
                        <rect id="Rectangle-2-Copy-2" fill="url(#linearGradient-1)" transform="translate(677.629428, 367.989846) rotate(-180.000000) translate(-677.629428, -367.989846) " x="24.9732086" y="0" width="1305.31244" height="735.979692"></rect>
                        <polygon id="Path-18-Copy" fill="#305EA3" points="422.840534 524.518462 517.611768 519.709797 579.963477 530.743976 584.929542 530.743976 650.040176 516.399544 728.07896 519.908791 784.673568 510.762749 859.166703 485.503845 928.422758 511.54202 1165.509 485.503845 1329.81232 516.399544 1329.81232 736.955844 928.139832 744.255325 25.8123167 736.955844 25.8123167 537.610065 120.9915 516.155844"></polygon>
                        <polygon id="Path-2" fill="#527EC9" opacity="0.39990942" points="859.37661 485.568831 822.407013 516.46453 784.88563 510.947441"></polygon>
                        <polygon id="Path-2-Copy-3" fill="#527EC9" opacity="0.39990942" points="1165.53748 485.444217 1099.64316 514.221753 929.755017 511.298214"></polygon>
                        <polygon id="Path-2-Copy" fill="#527EC9" opacity="0.39990942" points="650.040176 516.399544 643.970541 525.778595 584.929542 530.743976"></polygon>
                        <polygon id="Path-2-Copy-2" fill="#527EC9" opacity="0.39990942" points="517.34263 519.979221 505.755145 535.978779 448.369501 523.289474"></polygon>
                        <polygon id="Path-2-Copy-5" fill="#527EC9" opacity="0.39990942" points="418.455857 524.391599 381.118306 528.374594 342.407178 522.452841"></polygon>
                        <polygon id="Path-2-Copy-4" fill="#527EC9" opacity="0.39990942" points="280.931142 520.6653 205.52385 538.92155 121.133408 516.056899"></polygon>
                        <polygon id="Path-22-Copy" fill="url(#linearGradient-2)" points="760.397182 566.053346 920.414841 579.29436 1329.81232 614.312825 1329.81232 777.631494 0.694602273 777.948864 0.694602273 609.656818 430.429734 576.535815 520.922479 566.053346 562.306356 551.157205 567.272421 538.4679 580.515262 530.743976 584.929542 530.743976 583.274187 539.019609 621.899139 552.260623"></polygon>
                        <g id="Group-7-Copy" opacity="0.135086287" style="mix-blend-mode: multiply;" transform="translate(710.794721, 660.488312) scale(-1, -1) translate(-710.794721, -660.488312) translate(683.548387, 582.109091)">
                            <polygon id="Path-4" fill="#4986BC" points="12.4681152 148.237059 1.5118873e-13 100.79996 0.464113652 86.566248 6.81972485 80.2427452 15.5508211 85.4667981 24.2886145 77.239248 54.0749331 105.637539 50.3446112 134.510593 36.8036099 156.368823 25.403023 156.685332"></polygon>
                            <path d="M0,86.6161024 C0,86.6161024 32.6125233,130.57825 33.3265494,130.750594 C34.0405755,130.922939 50.0385407,134.616975 50.0385407,134.616975 L54.0749331,105.459849 L24.1401894,77.239248 L15.2184989,84.9501823 L6.47676918,79.850334 L0,86.6161024 Z" id="Path-19" fill="#4A96C2"></path>
                            <polygon id="Path-15" fill="#4986BC" points="24.4638865 82.7563371 7.49746597 72.6170237 1.10357006 62.1478178 35.6119028 55.1708914 47.4535127 59.5722829 40.5025573 70.838658"></polygon>
                            <polygon id="Path-20" fill="#4A9AC4" points="6.74770536 71.7221589 46.3499426 58.4470233 34.9669496 54.0674736 0 61.3694898"></polygon>
                            <polygon id="Path-16" fill="#4986BC" points="29.4009792 57.3777271 16.9568701 45.7967346 11.0357006 11.9709646 18.7387629 0 24.744911 4.267423 33.5640785 4.52628364 48.5570827 32.0995295"></polygon>
                            <polygon id="Path-21" fill="#4AA5C8" points="16.9097232 45.240131 48.5570827 31.6937249 33.653577 4.47567491 24.6638453 4.2450211 18.5134024 0 11.0357006 11.4308782"></polygon>
                        </g>
                        <polygon id="Oval-4-Copy" stroke="#4776C0" stroke-width="0.503125809" opacity="0.839905432" points="709.167423 589.330347 743.92988 588.295489 772.070917 583.330109 742.82631 577.81302 709.167423 577.32987 676.060321 578.364728 646.26393 583.330109 676.612106 588.847198"></polygon>
                        <polygon id="Oval-4-Copy" stroke="#4A78C1" stroke-width="0.5" points="607.001169 569.3636 623.606224 568.811891 634.590195 566.053346 622.761303 562.743093 607.001169 562.743093 589.386931 563.294802 580.515262 566.605055 589.386931 569.3636"></polygon>
                        <g id="Group-7-Copy-3" opacity="0.1" style="mix-blend-mode: multiply;" transform="translate(604.677419, 595.012987) scale(-1, -1) translate(-604.677419, -595.012987) translate(592.727273, 565.859740)">
                            <polygon id="Path-4" fill="#4667AF" points="3.37842347 53.6354449 7.55943648e-14 37.894815 1.3886435 33.8599776 2.94904028 29.7922814 7.4653292 31.1107379 14.4126578 31.1779498 23.1749713 39.5688538 18.1245384 48.76535 15.8505199 57.3777271 10.8253057 57.2508034"></polygon>
                            <g id="Group-12" transform="translate(9.994017, 21.843057) scale(-1, 1) rotate(23.000000) translate(-9.994017, -21.843057) translate(3.301935, 14.196304)">
                                <polygon id="Path-16" fill="#4C529A" points="10.415383 15.1624765 3.06754172 11.9319501 1.25893078 3.99935643 3.45635138 1.56030729 5.44638528 2.19277328 8.14018467 2.25347955 12.7197718 8.71977305"></polygon>
                                <polygon id="Path-21" fill="#4667AF" points="3.05490091 11.9224091 12.7142898 8.72238034 6.990495 0.425665816 4.67506352 0.0882535534 0.285476151 1.91227583"></polygon>
                            </g>
                            <g id="Group-11">
                                <polygon id="Path-15" fill="#585BA5" points="10.4945264 14.5890979 3.32547829 9.46314378 0.565835356 3.52923608 13.1841986 0.025125999 20.5707421 2.0694323 17.5706691 8.45517258"></polygon>
                                <polygon id="Path-15-Copy-2" fill="#4C529A" points="10.4987194 14.6013022 3.30742922 9.42689923 11.0878441 8.80915541 13.9864122 9.78158467 17.5706691 8.45517258"></polygon>
                                <polygon id="Path-20" fill="#4667AF" points="3.26329241 9.41619452 20.544617 2.05214637 13.2862866 0.0399999047 0.267272938 3.3191327"></polygon>
                            </g>
                        </g>
                        <g id="Group-7-Copy-2" transform="translate(630.967742, 534.794805) scale(-1, 1) translate(-630.967742, -534.794805) translate(591.771261, 502.774026)">
                            <g id="Group-11"></g>
                            <g id="Group-3" transform="translate(50.764223, 0.000000)">
                                <polygon id="Path-4" fill="#2D5A9E" points="3.86105539 59.806878 0 42.1773725 1.58702115 37.6583547 3.37033175 33.1025349 8.53180479 34.5792062 16.4716089 34.6544834 26.4856815 44.0522959 20.7137582 54.3523717 18.1148799 63.9982341 12.3717779 63.8560796"></polygon>
                                <g id="Group-12" transform="translate(11.718070, 25.126659) scale(-1, 1) rotate(23.000000) translate(-11.718070, -25.126659) translate(4.547982, 16.524061)">
                                    <polygon id="Path-16" fill="#2D5A9E" points="11.2833316 17.1613604 3.3231702 13.5000972 1.36384167 4.5098243 3.74438067 1.7455686 5.90025072 2.4623634 8.81853339 2.53116383 13.7797528 9.85962979"></polygon>
                                    <polygon id="Path-21" fill="#3361A5" points="3.30947599 13.489284 13.7738139 9.86258472 7.57303625 0.4596416 5.06465214 0.0772410357 0.309265831 2.14446628"></polygon>
                                </g>
                                <polygon id="Path-15" fill="#3361A5" points="11.5992134 16.6732548 3.67552863 10.8150215 0.625396973 4.03341266 14.572009 0.0287154274 22.7360834 2.36506548 19.4202132 9.66305438"></polygon>
                                <polygon id="Path-15-Copy-2" fill="#2D5A9E" points="11.6038478 16.6872025 3.65557967 10.7735991 12.2549856 10.0676062 15.4586662 11.1789539 19.4202132 9.66305438"></polygon>
                            </g>
                        </g>
                        <g id="Group" transform="translate(959.835777, 579.241558)">
                            <polygon id="Oval-4-Copy-2" stroke="#4776C0" stroke-width="0.5" opacity="0.839905432" points="23.9002933 65.9532468 37.1083501 65.4586848 47.8005865 63.0857143 36.6890467 60.4490804 23.9002933 60.2181818 11.3211915 60.7127438 0 63.0857143 11.5308432 65.7223482"></polygon>
                            <g id="Group-7-Copy-7" transform="translate(48.756598, 32.020779) scale(-1, 1) translate(-48.756598, -32.020779) translate(9.560117, 0.000000)">
                                <g id="Group-11"></g>
                                <g id="Group-3" transform="translate(46.940176, 11.470130)">
                                    <polygon id="Path-4" fill="#2D5A9E" points="9.71845674 47.4636364 0.880016266 40.9799513 2.80884462 31.8518263 7.19437867 21.632405 12.3558517 23.1090763 20.2956559 23.1843536 29.7209483 27.3405032 24.5378051 42.8822418 21.9389268 52.5281042 12.3558517 52.5281042"></polygon>
                                    <g id="Group-12" transform="translate(17.555379, 12.282904) scale(-1, 1) rotate(23.000000) translate(-17.555379, -12.282904) translate(7.995261, 3.202385)">
                                        <polygon id="Path-16" fill="#2D5A9E" points="16.0633902 18.1172045 3.67012529 17.1346629 6.14390032 5.46566845 8.52443932 2.70141276 10.6803094 3.41820755 13.598592 3.48700799 18.5598114 10.815474"></polygon>
                                        <polygon id="Path-21" fill="#3361A5" points="3.23285303 17.3206759 18.5538726 10.8184289 14.1729052 0.49932553 9.8447108 1.03308519 0.895099079 4.83130409"></polygon>
                                    </g>
                                    <polygon id="Path-3" fill="#3361A5" points="19.7794532 23.0149351 16.9949757 36.1545538 16.9949757 52.5281042 22.095261 52.5281042 25.0529222 43.2487228 29.7069442 27.3954175"></polygon>
                                </g>
                            </g>
                            <g id="Group-7-Copy-8" opacity="0.1" style="mix-blend-mode: multiply;" transform="translate(48.756598, 96.062338) scale(-1, -1) translate(-48.756598, -96.062338) translate(9.560117, 64.041558)">
                                <g id="Group-11"></g>
                                <g id="Group-3" transform="translate(46.940176, 11.470130)">
                                    <polygon id="Path-4" fill="#2D5A9E" points="9.71845674 47.4636364 0.880016266 40.9799513 2.80884462 31.8518263 7.19437867 21.632405 12.3558517 23.1090763 20.2956559 23.1843536 29.7209483 27.3405032 24.5378051 42.8822418 21.9389268 52.5281042 12.3558517 52.5281042"></polygon>
                                    <g id="Group-12" transform="translate(17.555379, 12.282904) scale(-1, 1) rotate(23.000000) translate(-17.555379, -12.282904) translate(7.995261, 3.202385)">
                                        <polygon id="Path-16" fill="#2D5A9E" points="16.0633902 18.1172045 3.67012529 17.1346629 6.14390032 5.46566845 8.52443932 2.70141276 10.6803094 3.41820755 13.598592 3.48700799 18.5598114 10.815474"></polygon>
                                        <polygon id="Path-21" fill="#3361A5" points="3.23285303 17.3206759 18.5538726 10.8184289 14.1729052 0.49932553 9.8447108 1.03308519 0.895099079 4.83130409"></polygon>
                                    </g>
                                    <polygon id="Path-3" fill="#3361A5" points="19.7794532 23.0149351 16.9949757 36.1545538 16.9949757 52.5281042 22.095261 52.5281042 25.0529222 43.2487228 29.7069442 27.3954175"></polygon>
                                </g>
                            </g>
                        </g>
                        <g id="Group-7" transform="translate(711.272727, 517.589610) scale(-1, 1) translate(-711.272727, -517.589610) translate(683.548387, 453.070130)">
                            <polygon id="Path-4" fill="#3361A5" points="12.6160205 121.994209 0 83.1061032 0.472327817 71.5018827 6.94042448 66.3465639 15.9525956 66.9046733 31.5064403 66.7970523 55.0319841 87.0500035 51.2356407 110.58914 37.6391214 129.006273 25.7060965 128.707251"></polygon>
                            <polygon id="Path-4-Copy" fill="#2D5A9E" points="12.6887835 122.000097 0.0899883791 83.1000777 11.9269628 83.8468243 33.7192384 106.575184 32.1447112 118.671833 37.6819038 128.966489 25.6526843 128.706382"></polygon>
                            <path d="M0.53373347,71.4846924 C0.53373347,71.4846924 33.0540006,106.377728 33.7783775,106.516996 C34.5027543,106.656264 51.207025,110.65818 51.207025,110.65818 L55.3825544,86.2306357 L31.5390409,66.7928768 L15.8743273,66.7214887 L7.09439315,65.5361108 L0.53373347,71.4846924 Z" id="Path-19" fill="#3D6AB1"></path>
                            <polygon id="Path-15" fill="#3361A5" points="24.2758471 66.8521424 7.69246744 59.6107122 1.30888542 51.2278869 30.4975736 46.2776342 47.5840617 49.1656236 40.6443188 58.1867523"></polygon>
                            <polygon id="Path-15-Copy-2" fill="#2D5A9E" points="24.2855465 66.8693833 7.6507165 59.5595096 25.6483046 58.6868235 32.3532471 60.0605733 40.6443188 58.1867523"></polygon>
                            <polygon id="Path-20" fill="#3D6AB1" points="7.54861961 59.544387 47.5236293 49.1412038 30.7337226 46.2986465 0.618253436 50.9310741"></polygon>
                            <polygon id="Path-16" fill="#2D5A9E" points="29.6101934 47.3519005 17.0103152 37.988976 11.0150274 10.6417405 18.2991638 2.23323579 24.8958429 4.4136319 33.8254043 4.62291385 49.0060836 26.9151499"></polygon>
                            <polygon id="Path-21" fill="#3361A5" points="16.9684127 37.9560838 48.9879115 26.9241384 34.5707964 3.88577502 26.7491804 0.0169715145 18.4810266 1.86228697 10.4710834 9.63439789"></polygon>
                            <polygon id="Path-21-Copy" fill="#3D6AB1" points="17.0059239 37.9397104 48.9969243 26.9948223 26.6004571 0.185878492"></polygon>
                        </g>
                        <g id="Group-2" transform="translate(360.416422, 558.212987)">
                            <polygon id="Oval-4-Copy-2" stroke="#4776C0" stroke-width="0.5" opacity="0.839905432" points="31.0703812 81.8142857 48.2408551 81.1729007 62.1407625 78.0954545 47.6957607 74.67607 31.0703812 74.3766234 14.717549 75.0180084 0 78.0954545 14.9900962 81.5148391"></polygon>
                            <g id="Group-7-Copy-5" transform="translate(9.942522, 0.000000)">
                                <polygon id="Path-4" fill="#3361A5" points="9.44322857 74.733146 1.24281525 49.3298508 1.54982833 41.7495012 5.75409116 38.381837 11.6120024 38.7464168 21.7220015 38.6761144 37.0136049 51.9061672 34.5459817 67.2828901 25.7082442 79.3137119 17.951778 79.1183786"></polygon>
                                <polygon id="Path-4-Copy" fill="#2D5A9E" points="9.49052453 74.7369925 1.3013077 49.3259147 8.99534105 49.8137201 23.1603202 64.6608107 22.1368775 72.5628347 25.7360527 79.2877235 17.9170601 79.1178107"></polygon>
                                <path d="M1.589742,41.7382718 C1.589742,41.7382718 22.7279157,64.5318244 23.1987606,64.6227999 C23.6696055,64.7137754 34.5273815,67.3279902 34.5273815,67.3279902 L37.2414756,51.3709228 L21.7431918,38.6733867 L11.561128,38.6267531 L5.8541708,37.852416 L1.589742,41.7382718 Z" id="Path-19" fill="#3D6AB1"></path>
                                <polygon id="Path-15" fill="#3361A5" transform="translate(16.282248, 6.720053) scale(-1, 1) translate(-16.282248, -6.720053) " points="16.1713403 13.440107 5.39214356 8.70970977 1.24281525 3.23370675 20.2154626 0 31.3216798 1.88655234 26.8108469 7.77952116"></polygon>
                                <polygon id="Path-20" fill="#3D6AB1" transform="translate(15.244247, 4.326329) scale(-1, 1) translate(-15.244247, -4.326329) " points="4.50473801 8.65265733 30.4884943 1.8568742 19.575055 0 0 3.02609039"></polygon>
                                <polygon id="Path-16" fill="#2D5A9E" transform="translate(14.535600, 27.352009) scale(-1, 1) translate(-14.535600, -27.352009) " points="14.2753647 42.088684 6.08544386 35.9724403 2.18850679 18.1081119 6.9231955 12.6153341 11.2110369 14.0396577 17.0152518 14.1763692 26.8826933 28.7385659"></polygon>
                                <polygon id="Path-21" fill="#3361A5" transform="translate(14.352912, 23.559267) scale(-1, 1) translate(-14.352912, -23.559267) " points="6.05820724 35.9509538 26.8708815 28.7444376 17.4997567 13.6948401 12.4157063 11.16758 7.04140628 12.3730152 1.8349432 17.4500747"></polygon>
                            </g>
                            <g id="Group-7-Copy-6" opacity="0.1" style="mix-blend-mode: multiply;" transform="translate(28.584751, 119.002597) scale(1, -1) translate(-28.584751, -119.002597) translate(9.942522, 79.335065)">
                                <polygon id="Path-4" fill="#3361A5" points="9.44322857 74.733146 1.24281525 49.3298508 1.54982833 41.7495012 5.75409116 38.381837 11.6120024 38.7464168 21.7220015 38.6761144 37.0136049 51.9061672 34.5459817 67.2828901 25.7082442 79.3137119 17.951778 79.1183786"></polygon>
                                <polygon id="Path-4-Copy" fill="#2D5A9E" points="9.49052453 74.7369925 1.3013077 49.3259147 8.99534105 49.8137201 23.1603202 64.6608107 22.1368775 72.5628347 25.7360527 79.2877235 17.9170601 79.1178107"></polygon>
                                <path d="M1.589742,41.7382718 C1.589742,41.7382718 22.7279157,64.5318244 23.1987606,64.6227999 C23.6696055,64.7137754 34.5273815,67.3279902 34.5273815,67.3279902 L37.2414756,51.3709228 L21.7431918,38.6733867 L11.561128,38.6267531 L5.8541708,37.852416 L1.589742,41.7382718 Z" id="Path-19" fill="#3D6AB1"></path>
                                <polygon id="Path-15" fill="#3361A5" transform="translate(16.282248, 6.720053) scale(-1, 1) translate(-16.282248, -6.720053) " points="16.1713403 13.440107 5.39214356 8.70970977 1.24281525 3.23370675 20.2154626 0 31.3216798 1.88655234 26.8108469 7.77952116"></polygon>
                                <polygon id="Path-20" fill="#3D6AB1" transform="translate(15.244247, 4.326329) scale(-1, 1) translate(-15.244247, -4.326329) " points="4.50473801 8.65265733 30.4884943 1.8568742 19.575055 0 0 3.02609039"></polygon>
                                <polygon id="Path-16" fill="#2D5A9E" transform="translate(14.535600, 27.352009) scale(-1, 1) translate(-14.535600, -27.352009) " points="14.2753647 42.088684 6.08544386 35.9724403 2.18850679 18.1081119 6.9231955 12.6153341 11.2110369 14.0396577 17.0152518 14.1763692 26.8826933 28.7385659"></polygon>
                                <polygon id="Path-21" fill="#3361A5" transform="translate(14.352912, 23.559267) scale(-1, 1) translate(-14.352912, -23.559267) " points="6.05820724 35.9509538 26.8708815 28.7444376 17.4997567 13.6948401 12.4157063 11.16758 7.04140628 12.3730152 1.8349432 17.4500747"></polygon>
                            </g>
                        </g>
                        <polygon id="Path-10" fill="#3D6AB1" points="1067.8651 597.672424 1077.33559 568.727273 1074.02036 597.672424"></polygon>
                        <polygon id="Path-10-Copy" fill="#3D6AB1" points="1061.17302 594.804891 1067.51611 575.418182 1065.29565 594.804891"></polygon>
                        <polygon id="Path-10-Copy-2" fill="#3D6AB1" points="914.903226 581.423073 920.290303 562.036364 918.069847 581.423073"></polygon>
                        <polygon id="Path-10-Copy-10" fill="#3D6AB1" points="853.718475 574.732164 859.105552 555.345455 856.885096 574.732164"></polygon>
                        <g id="Group-4" transform="translate(1005.724340, 563.948052)" fill="#3D6AB1">
                            <polygon id="Path-10-Copy-11" points="0 14.3376623 3.82404692 0 2.24784357 14.3376623"></polygon>
                            <polygon id="Path-10-Copy-12" points="3.82404692 14.3376623 6.69208211 3.82337662 5.5099296 14.3376623"></polygon>
                        </g>
                        <polygon id="Path-10-Copy-3" fill="#3D6AB1" points="912.035191 582.417777 917.422268 551.522078 915.201811 582.417777"></polygon>
                        <polygon id="Path-10-Copy-9" fill="#3D6AB1" points="861.366569 575.726868 866.753646 544.831169 864.53319 575.726868"></polygon>
                        <polygon id="Path-10-Copy-4" fill="#3D6AB1" transform="translate(192.158358, 590.711688) scale(-1, 1) translate(-192.158358, -590.711688) " points="187.378299 605.049351 196.938416 576.374026 193.59181 605.049351"></polygon>
                        <polygon id="Path-10-Copy-5" fill="#3D6AB1" transform="translate(200.284457, 592.623377) scale(-1, 1) translate(-200.284457, -592.623377) " points="196.938416 602.181818 203.630499 583.064935 201.287874 602.181818"></polygon>
                        <polygon id="Path-10-Copy-8" fill="#3D6AB1" transform="translate(231.483851, 586.888312) scale(-1, 1) translate(-231.483851, -586.888312) " points="228.13781 596.446753 234.829892 577.32987 232.487268 596.446753"></polygon>
                        <polygon id="Path-10-Copy-6" fill="#3D6AB1" transform="translate(347.032258, 579.241558) scale(-1, 1) translate(-347.032258, -579.241558) " points="344.164223 588.8 349.900293 569.683117 347.535988 588.8"></polygon>
                        <polyline id="Path-10-Copy-13" fill="#3D6AB1" points="443.589443 576.374026 439.765396 562.036364 441.341599 576.374026"></polyline>
                        <polygon id="Path-10-Copy-7" fill="#3D6AB1" transform="translate(349.900293, 574.462338) scale(-1, 1) translate(-349.900293, -574.462338) " points="347.032258 589.755844 352.768328 559.168831 350.404023 589.755844"></polygon>
                        <polyline id="Path-10-Copy-14" fill="#3D6AB1" points="454.105572 576.374026 450.281525 553.433766 451.857728 576.374026"></polyline>
                    </g>
                </g>
            </g>
        </g>
    </g>
</svg>
