<svg xmlns="http://www.w3.org/2000/svg" width="1280" height="720" viewBox="0 0 1280 720">
    <defs>
        <radialGradient id="a" cx="51.399%" cy="60.882%" r="95.571%" fx="51.399%" fy="60.882%" gradientTransform="matrix(0 -1 .5625 0 .172 1.123)">
            <stop offset="0%" stop-color="#6158AF"/>
            <stop offset="57.5%" stop-color="#564E99"/>
            <stop offset="100%" stop-color="#4D468A"/>
        </radialGradient>
    </defs>
    <g fill="none" fill-rule="evenodd" transform="translate(-38 -156)">
        <path fill="url(#a)" d="M38 156h1280v720H38z"/>
        <path fill="#D8D8D8" d="M467.45 599.747L875.066 834.95c5.67 3.272 7.616 10.51 4.35 16.165l.592-1.025c-3.267 5.656-10.522 7.583-16.168 4.325L739.78 782.83c-5.662-3.267-12.909-1.317-16.166 4.322l.497-.861c-3.266 5.654-1.33 12.882 4.332 16.149l31.68 18.28c5.659 3.265 7.603 10.487 4.317 16.176-2.937 5.084-10.175 7.034-15.859 3.754L524.728 711.482c-5.67-3.272-7.62-10.507-4.344-16.178 2.9-5.022.973-12.255-4.692-15.523l-120.773-69.69c-5.658-3.264-7.602-10.484-4.33-16.15l-.56.971c3.267-5.655 10.5-7.593 16.17-4.321l29.424 16.978c5.664 3.268 12.892 1.332 16.157-4.346l-.497.864c3.259-5.669 10.49-7.615 16.167-4.34z" opacity=".147" style="mix-blend-mode:overlay"/>
        <path fill="#D8D8D8" d="M189.764 235.768l294.942 170.017c4.103 2.365 5.511 7.597 3.148 11.685l.428-.742c-2.364 4.089-7.613 5.482-11.699 3.127l-89.767-51.745c-4.097-2.362-9.34-.953-11.697 3.124l.36-.623c-2.363 4.087-.962 9.312 3.134 11.673l22.924 13.214a8.539 8.539 0 0 1 3.123 11.692c-2.125 3.675-7.362 5.085-11.475 2.714L231.21 316.535c-4.103-2.365-5.514-7.595-3.144-11.693 2.1-3.63.704-8.859-3.395-11.222l-87.388-50.374a8.533 8.533 0 0 1-3.133-11.674l-.406.702c2.364-4.088 7.599-5.49 11.701-3.124l21.29 12.272a8.55 8.55 0 0 0 11.69-3.141l-.359.624c2.359-4.097 7.592-5.504 11.698-3.137zM132.804 568.629l175.639 101.305a5.096 5.096 0 0 1 1.874 6.963l.256-.442a5.107 5.107 0 0 1-6.967 1.863l-53.457-30.833a5.106 5.106 0 0 0-6.966 1.861l.215-.37a5.088 5.088 0 0 0 1.866 6.955l13.651 7.874a5.09 5.09 0 0 1 1.86 6.966c-1.266 2.19-4.384 3.03-6.833 1.618l-96.457-55.635a5.096 5.096 0 0 1-1.873-6.967c1.25-2.164.42-5.279-2.021-6.687l-52.04-30.016a5.086 5.086 0 0 1-1.866-6.956l-.242.418a5.101 5.101 0 0 1 6.968-1.86l12.679 7.312a5.09 5.09 0 0 0 6.961-1.872l-.214.372a5.094 5.094 0 0 1 6.967-1.87z" opacity=".15" style="mix-blend-mode:overlay"/>
        <path fill="#655CA9" d="M91.819 908L55 821.05s145.152-8.538 550.735-15.012c405.583-6.473 667.82 5.44 667.82 5.44 8.823.361 22.87 2.59 31.387 4.98L1391 840.62l-63.002 61.585L91.818 908z"/>
        <path fill="#585197" d="M43.231 888L0 818.225s10.932-5.316 72.36-9.143c61.428-3.827 207.434 3.726 207.434 3.726s-145.605 7.31-81.98 19.641c63.623 12.331 310.51-2.01 390.654 9.023 58.764 8.09 271.887 12.179 403.624 9.665 131.738-2.515 298.481-9.665 298.481-9.665l44.427-6.447V888H43.231z"/>
        <g fill="#8C8997" style="mix-blend-mode:overlay">
            <path d="M1096.5 637c176.455 0 319.5-142.597 319.5-318.5S1272.955 0 1096.5 0 777 142.597 777 318.5 920.045 637 1096.5 637z" opacity=".941"/>
            <path d="M1069 564c156.297 0 283-126.256 283-282S1225.297 0 1069 0 786 126.256 786 282s126.703 282 283 282z" opacity=".671"/>
            <path d="M1049 508c125.369 0 227-101.184 227-226S1174.369 56 1049 56 822 157.184 822 282s101.631 226 227 226z" opacity=".741"/>
        </g>
        <ellipse cx="1181" cy="389.843" fill="#4D468A" fill-opacity=".6" rx="28" ry="29.5" transform="rotate(-7 1181 389.843)"/>
        <ellipse cx="1120" cy="369.843" fill="#4D468A" fill-opacity=".6" rx="8" ry="8.5" transform="rotate(-7 1120 369.843)"/>
        <ellipse cx="911.5" cy="389.343" fill="#4D468A" fill-opacity=".6" rx="14.5" ry="15" transform="rotate(-7 911.5 389.343)"/>
        <circle cx="1093" cy="475.343" r="37" fill="#4D468A" fill-opacity=".6" transform="rotate(-7 1093 475.343)"/>
    </g>
</svg>
