<?xml version="1.0" encoding="utf-8"?>
<!-- Svg Vector Icons : http://www.onlinewebfonts.com/icon -->
<!DOCTYPE svg PUBLIC "-//W3C//DTD SVG 1.1//EN" "http://www.w3.org/Graphics/SVG/1.1/DTD/svg11.dtd">
<svg fill="#EB6864" version="1.1" xmlns="http://www.w3.org/2000/svg" xmlns:xlink="http://www.w3.org/1999/xlink" x="0px" y="0px" viewBox="0 0 1000 1000" enable-background="new 0 0 1000 1000" xml:space="preserve">
<metadata> Svg Vector Icons : http://www.onlinewebfonts.com/icon </metadata>
<g><path d="M611.4,943.3v-65.8c95.1-20.5,171.6-64.9,229.3-133.3c57.8-68.4,86.7-149.8,86.7-244.2c0-94.4-29.4-176.5-88.4-246.4C780.1,183.7,704.2,140,611.4,122.5V56.7c70.2,10.3,134.3,36,192.1,77.4c57.8,41.3,103.3,94.2,136.6,158.6C973.4,357,990,426.1,990,500c0,111.9-36.2,209.8-108.7,293.5C808.9,877.3,718.9,927.2,611.4,943.3L611.4,943.3z M452.3,879.7L231.7,732.6V267.4l220.6-147.1c8.8,0,17.2,1.7,25.2,5c8.1,3.3,14.8,7.7,20.3,13.2c5.5,5.5,9.9,12.2,13.2,20.3c3.3,8.1,5,16.1,5,24.2v634.3c0,26.3-12.1,45.4-36.2,57.1C470.9,877.9,461.8,879.7,452.3,879.7L452.3,879.7L452.3,879.7z M168,689.8H73.6c-11.7,0-22.5-2.7-32.4-8.2c-9.9-5.5-17.6-13.2-23-23c-5.5-9.9-8.2-20.7-8.2-32.4V373.8c0-17.6,6.2-32.6,18.6-45c12.4-12.4,27.4-18.6,45-18.6H168V689.8L168,689.8L168,689.8z M801.2,500c0,36.6-8.4,70.8-25.2,102.6c-16.8,31.8-39.7,57.8-68.6,77.9c-28.9,20.1-60.9,32.8-96,37.9v-63.7c35.8-7.3,65.8-25.4,90-54.3c24.2-28.9,36.2-62.4,36.2-100.4c0-24.9-5.5-48.5-16.5-70.8c-11-22.3-26.2-40.8-45.5-55.4c-19.4-14.6-40.8-24.1-64.2-28.6v-63.7c53.4,8.1,98.4,32.6,135,73.5C782.9,396.1,801.3,444.4,801.2,500L801.2,500z"/></g>
</svg>